<?xml version="1.0" encoding="UTF-8" standalone="no"?>
<!-- Created with Inkscape (http://www.inkscape.org/) -->

<svg
   width="62.073555mm"
   height="91.913147mm"
   viewBox="0 0 62.073555 91.913147"
   version="1.1"
   id="svg322"
   xml:space="preserve"
   xmlns:inkscape="http://www.inkscape.org/namespaces/inkscape"
   xmlns:sodipodi="http://sodipodi.sourceforge.net/DTD/sodipodi-0.dtd"
   xmlns="http://www.w3.org/2000/svg"
   xmlns:svg="http://www.w3.org/2000/svg"><sodipodi:namedview
     id="namedview324"
     pagecolor="#505050"
     bordercolor="#eeeeee"
     borderopacity="1"
     inkscape:showpageshadow="0"
     inkscape:pageopacity="0"
     inkscape:pagecheckerboard="0"
     inkscape:deskcolor="#505050"
     inkscape:document-units="mm"
     showgrid="false" /><defs
     id="defs319" /><g
     inkscape:label="Layer 1"
     inkscape:groupmode="layer"
     id="layer1"
     style="display:inline"
     transform="translate(-70.761926,-186.85049)"><path
       style="display:inline;opacity:0.25;fill:#000000;fill-opacity:1;stroke-width:0.249548"
       d="m 94.148908,258.12805 c -0.150043,0.0543 -0.349308,0.27996 -0.453932,0.6256 -0.134943,0.44581 -0.357201,0.67379 -0.692775,0.71068 -0.79035,0.0869 -3.179335,1.54414 -3.390724,2.06824 -0.355525,0.88152 0.179012,1.0123 0.782899,0.19154 0.55446,-0.75357 1.881248,-1.65263 2.554438,-1.73146 0.219736,-0.0258 0.413927,0.1653 0.481089,0.47292 0.140541,0.64323 0.552063,0.45405 0.475438,-0.21857 -0.05325,-0.46749 -0.03215,-0.48026 0.404076,-0.23813 0.253032,0.14046 0.48795,0.1513 0.522108,0.0235 0.03415,-0.12778 0.167127,0.33779 0.295765,1.03479 0.128635,0.69701 0.318299,1.2186 0.421203,1.15922 0.287314,-0.16576 0.412083,0.26841 0.250716,0.87204 -0.09479,0.35461 -1.61e-4,0.72433 0.272984,1.06517 0.23005,0.28705 0.432504,0.51372 0.449406,0.50397 0.01688,-0.01 0.296791,-0.30229 0.622291,-0.65013 0.3255,-0.34784 0.56489,-0.52997 0.53151,-0.40514 -0.0334,0.12483 0.18665,0.38324 0.48927,0.57447 0.52057,0.32894 0.62814,0.6719 0.27472,0.8758 -0.0874,0.0504 -0.31246,-0.0783 -0.50026,-0.28614 -0.27582,-0.30529 -0.49698,-0.27067 -1.151281,0.18046 -0.735259,0.50692 -0.802574,0.66793 -0.729271,1.7462 0.08058,1.18528 -0.102703,1.57715 -0.58529,1.2535 -0.16196,-0.10862 -0.292397,0.0489 -0.357749,0.43177 -0.05665,0.33156 -0.106317,0.41844 -0.11031,0.19289 -0.0048,-0.26923 -0.0861,-0.31803 -0.236953,-0.1421 -0.126399,0.14738 -0.530201,0.14672 -0.897244,-0.001 -0.881216,-0.35503 -2.348875,-0.34949 -2.734885,0.0102 -0.213457,0.19888 0.02052,0.29119 0.76149,0.30026 0.588177,0.007 1.713124,0.29525 2.500109,0.64014 1.31554,0.57652 1.463119,0.71507 1.830671,1.71734 0.454734,1.23997 0.334488,1.63419 -0.679749,2.22585 -0.530765,0.30962 -0.754775,0.65367 -0.864188,1.32858 -0.143351,0.88429 -0.170161,0.90964 -0.917046,0.86995 -0.423121,-0.0224 -1.295884,0.1823 -1.939525,0.45512 -0.643638,0.27281 -1.610323,0.4552 -2.148394,0.40506 -0.81246,-0.0757 -0.984588,-0.0165 -1.015644,0.34914 -0.07759,0.91365 -1.055718,-2.37498 -1.380046,-4.64023 -0.242708,-1.69519 0.418,-2.61353 1.271367,-1.76677 0.269436,0.26734 0.551089,0.36814 0.626203,0.22373 0.0774,-0.14884 0.158192,-0.0797 0.186145,0.15922 0.0419,0.35807 0.109406,0.33258 0.449364,-0.16882 0.406506,-0.59953 0.414836,-1.04897 0.01511,-0.81836 -0.120791,0.0697 -0.212676,-0.0126 -0.204048,-0.18269 0.02813,-0.55486 0.400091,-0.54706 0.668292,0.014 0.293905,0.61489 -0.08634,1.42561 -0.978591,2.08656 -0.633642,0.46937 -0.67803,1.09547 -0.08226,1.15841 0.606417,0.0641 0.787319,-0.14186 0.320541,-0.36499 -0.343984,-0.16443 -0.374084,-0.2414 -0.155186,-0.39559 1.42088,-1.00089 1.714628,-1.69767 1.300999,-3.08768 -0.137628,-0.46249 0.138685,-1.00074 0.676535,-1.31684 0.233909,-0.13747 0.528064,-0.51818 0.653767,-0.8462 0.214601,-0.56004 0.188923,-0.56179 -0.423802,-0.0243 -0.358871,0.31479 -0.692337,0.70588 -0.74128,0.86896 -0.04894,0.16306 -0.24468,0.3146 -0.434918,0.33688 -0.586641,0.0687 -1.222086,0.88168 -1.126485,1.44158 0.111124,0.65101 -0.546849,0.8011 -0.838358,0.19121 -0.117953,-0.24676 -0.0047,-0.70799 0.269333,-1.09714 0.551059,-0.78264 0.47132,-1.25244 -0.108983,-0.64269 -0.454744,0.4778 -1.59943,1.93067 -1.935127,2.45588 -0.389858,0.60998 -0.204564,2.57282 0.444584,4.71265 0.63796,2.10296 0.894668,2.60108 1.689586,3.27413 0.742736,0.62883 2.006483,0.60222 3.631559,-0.0757 0.485328,-0.20248 1.128776,-0.43706 1.429507,-0.52184 0.30584,-0.0862 0.688054,-0.44415 0.867767,-0.81231 0.188426,-0.38599 0.603493,-0.76569 1.003475,-0.91772 0.375099,-0.14258 0.687205,-0.3618 0.693584,-0.48758 0.0064,-0.12579 0.208325,-0.27742 0.448905,-0.33645 1.18227,-0.29009 2.38512,-3.36507 2.90764,-7.43341 0.22096,-1.72035 0.50847,-2.81425 0.8532,-3.24688 0.78151,-0.98078 1.02586,-1.06815 1.26609,-0.45299 0.36959,0.94644 0.52226,1.00579 0.4634,0.18123 -0.053,-0.74241 -0.0189,-0.78532 0.52342,-0.65831 0.4113,0.0963 0.52223,0.2149 0.38,0.40772 -0.34906,0.47319 -0.008,0.73067 0.41368,0.31238 0.28525,-0.28282 0.54894,-0.30322 0.8982,-0.0687 0.4396,0.29513 0.44843,0.39076 0.0798,0.8591 -0.66628,0.84641 -0.27069,1.16534 0.57461,0.46337 0.71428,-0.59315 0.74696,-0.58946 1.52964,0.1706 0.75293,0.73116 0.79444,0.82549 0.71057,1.61333 -0.14542,1.36603 0.13757,3.84706 0.53328,4.67495 l 0.36868,0.77169 -1.39292,-0.2391 c -0.76619,-0.13142 -1.46692,-0.3925 -1.55663,-0.5802 -0.0897,-0.18772 -0.26706,-0.24767 -0.39435,-0.13343 -0.12732,0.11424 -0.6209,0.19969 -1.09707,0.18978 -0.47617,-0.01 -0.93669,0.0234 -1.02287,0.0746 -0.0862,0.0511 -0.3204,0.12396 -0.52071,0.16157 -0.20027,0.0378 -1.00031,0.31847 -1.77748,0.62411 -1.413,0.55587 -1.41285,0.55601 -0.94229,1.21456 0.71782,1.00461 3.36871,3.05535 4.6223,3.57596 1.27946,0.53136 2.64632,0.49568 4.07425,-0.10646 0.54502,-0.22974 1.05052,-0.39696 1.12342,-0.3713 0.24648,0.0868 0.47913,-0.15131 0.37027,-0.37906 -0.0595,-0.12446 0.20129,-0.54623 0.57958,-0.93717 0.37828,-0.39094 0.72286,-0.90871 0.766,-1.15084 0.11419,-0.64089 -0.54962,-3.29514 -1.35674,-5.42341 -1.30695,-3.44619 -1.69872,-4.10755 -2.84676,-4.80641 -0.86555,-0.5269 -0.93998,-0.63208 -0.82285,-1.16733 0.0708,-0.32354 0.0748,-0.70131 0.009,-0.83908 -0.22395,-0.46854 -0.78193,-0.17538 -0.81507,0.42827 -0.0293,0.53388 -0.0866,0.58185 -0.51184,0.42806 -0.32082,-0.11604 -0.53763,-0.41565 -0.65722,-0.9083 -0.16749,-0.69001 -0.18912,-0.6988 -0.35261,-0.14175 -0.16156,0.55053 -0.23134,0.59078 -0.958,0.55269 -0.60832,-0.0319 -0.86483,-0.21042 -1.14698,-0.79797 -0.27647,-0.57575 -0.42192,-0.68124 -0.60933,-0.44163 -0.13548,0.17323 -0.12528,0.56839 0.0228,0.87816 0.19182,0.40129 0.15287,0.63023 -0.13499,0.79631 -0.35854,0.20685 -0.41751,0.1398 -0.52416,-0.59529 -0.15305,-1.05505 -1.39821,-2.1507 -3.2858,-2.89122 -0.717576,-0.28151 -1.363337,-0.70436 -1.43556,-0.93996 -0.102264,-0.33359 -0.277117,-0.33464 -0.789242,-0.005 -0.686466,0.44183 -0.884973,0.36074 -0.710927,-0.29033 0.09108,-0.34073 -0.0098,-0.4581 -0.159845,-0.40382 z m 7.668502,14.89021 c 1.04674,-0.3198 2.05005,-0.46277 2.03858,-0.23659 -0.008,0.15046 0.2833,0.10208 0.6465,-0.10745 0.61002,-0.35194 0.6754,-0.32668 0.85608,0.333 0.14528,0.53041 0.46513,0.86158 1.24371,1.28753 0.57654,0.31541 1.13747,0.75965 1.24606,0.98683 0.14779,0.30919 0.0334,0.50072 -0.45388,0.76207 -0.358,0.19203 -0.76679,0.23441 -0.90891,0.0942 -0.14211,-0.14017 -0.44396,-0.14786 -0.67057,-0.0171 -0.23268,0.13424 -0.55221,0.0662 -0.73401,-0.15625 -0.21166,-0.25906 -0.41757,-0.28078 -0.60096,-0.0634 -0.20741,0.24591 -0.22164,0.16662 -0.0554,-0.30893 0.21905,-0.62661 0.21298,-0.63065 -0.30321,-0.20589 -0.66056,0.54358 -0.8541,0.41802 -0.87027,-0.56482 -0.0109,-0.66151 -0.0471,-0.7329 -0.24377,-0.48147 -0.12696,0.16233 -0.15498,0.47349 -0.0623,0.69137 0.10638,0.25015 0.0782,0.30945 -0.0767,0.16179 -0.13487,-0.12857 -0.37442,-0.15932 -0.53201,-0.0684 -0.15759,0.0909 -0.51037,-0.009 -0.78432,-0.22292 -0.27395,-0.21353 -0.66482,-0.39983 -0.86875,-0.41424 -0.20393,-0.0144 -0.44832,-0.18767 -0.54263,-0.38499 -0.13122,-0.27451 0.0218,-0.442 0.65154,-0.71278 0.32259,-0.13869 0.67636,-0.26499 1.02527,-0.37159 z"
       id="path2907"
       inkscape:export-filename="path2907.png"
       inkscape:export-xdpi="96"
       inkscape:export-ydpi="96" /><path
       style="display:inline;opacity:0.25;fill:#000000;fill-opacity:1;stroke-width:0.264583"
       d="m 82.083492,249.1689 c -0.299468,0.0274 -1.391172,0.5839 -1.401953,0.74893 -0.0077,0.11759 0.108778,0.1471 0.259066,0.0653 0.150279,-0.0817 0.266573,-0.0226 0.258032,0.13126 -0.0085,0.15387 -0.13455,0.27307 -0.279851,0.26501 -0.145292,-0.008 -0.273577,0.15358 -0.284984,0.35921 -0.01141,0.20563 -0.408359,0.69018 -0.88202,1.07705 -0.473663,0.38688 -1.092131,1.02861 -1.374608,1.42584 -0.318363,0.44771 -0.576286,0.607 -0.678394,0.41927 -0.0906,-0.16658 0.271178,-0.69295 0.804044,-1.16979 0.532866,-0.47686 0.899301,-0.87108 0.813996,-0.8758 -0.08531,-0.005 0.193066,-0.33382 0.618703,-0.73145 0.425633,-0.39763 0.663685,-0.79959 0.529242,-0.89335 -0.134444,-0.0938 -0.598708,0.28446 -1.031806,0.84085 -0.433104,0.5564 -0.86455,1.00747 -0.958761,1.00225 -0.329977,-0.0183 -1.1007,1.40663 -1.33792,2.47345 -0.174752,0.78591 -0.140425,1.18719 0.127211,1.48626 0.379456,0.42405 1.201838,0.60242 1.22057,0.26475 0.0205,-0.36944 0.891755,-0.4708 1.243118,-0.14468 0.522881,0.48529 1.492672,-0.0536 2.25788,-1.25415 0.822641,-1.29066 1.141673,-1.43649 1.622628,-0.74367 0.217659,0.31362 0.631334,0.62154 0.91931,0.68487 0.423898,0.0932 0.513753,-0.0112 0.472499,-0.54987 -0.02803,-0.36592 -0.224102,-0.85364 -0.435599,-1.08399 -0.344181,-0.37486 -0.375255,-0.34218 -0.297414,0.31437 0.04783,0.40345 -0.01531,0.72804 -0.140458,0.72108 -0.125139,-0.007 -0.217758,-0.16102 -0.206096,-0.34255 0.01171,-0.18153 -0.376557,-1.2464 -0.862605,-2.36645 -0.486045,-1.12005 -0.890533,-2.06564 -0.899177,-2.10102 -0.005,-0.0204 -0.03186,-0.027 -0.07464,-0.023 z"
       id="path2905" /><path
       id="path2903"
       style="display:inline;opacity:0.25;fill:#000000;fill-opacity:1;stroke-width:0.26357"
       d="m 97.70314,239.89631 c 0.11442,-0.0277 0.22153,-0.002 0.31276,0.0874 0.085,0.0834 0.0463,0.1534 -0.086,0.15542 -0.38578,0.006 -0.31184,1.54986 0.0811,1.69579 0.22864,0.0849 0.32604,0.44377 0.27215,1.00247 -0.10306,1.06824 0.0604,1.52929 0.53999,1.52285 0.43391,-0.006 0.4719,0.36659 0.10952,1.07136 -0.25965,0.50496 -0.8517,0.57628 -1.49976,0.18073 -0.23231,-0.14179 -0.32804,-5e-5 -0.32176,0.47525 0.007,0.49278 -0.12891,0.67904 -0.49821,0.684 -0.279061,0.004 -0.572749,-0.20076 -0.652383,-0.45437 -0.369334,-1.17634 -0.394986,-2.01575 -0.07811,-2.54092 0.189751,-0.31448 0.492056,-1.20802 0.672274,-1.98562 0.225433,-0.97266 0.700099,-1.7328 1.099139,-1.8795 0.0166,-0.006 0.0329,-0.0109 0.0493,-0.0148 z m 0.31579,6.50495 c 0.12243,-0.0351 0.25395,-2.7e-4 0.42655,0.0898 0.27009,0.14103 0.58444,0.23953 0.69833,0.21881 0.53216,-0.0969 0.86444,0.0472 0.86881,0.37704 0.002,0.17526 0.19165,0.55526 0.43786,0.8938 0.0519,1.8e-4 0.10473,7e-5 0.15391,0.001 0.94036,0.0208 1.39235,0.2096 1.5624,0.61061 0.11815,0.27864 0.12761,0.63656 0.0211,0.79555 -0.12161,0.18148 0.13675,0.43533 0.69433,0.68154 1.00372,0.44321 0.9668,0.57787 -0.14401,0.52201 -0.97021,-0.0488 -1.56744,0.28471 -0.82137,0.45879 1.15726,0.27003 0.48954,1.31615 -0.71537,1.12084 -0.35451,-0.0575 -0.8366,0.0632 -1.07174,0.26758 -0.33186,0.28853 -0.41293,0.28721 -0.36235,-0.005 0.0465,-0.26856 0.007,-0.29276 -0.13881,-0.0832 -0.11217,0.16148 -0.27648,0.22201 -0.36493,0.13366 -0.0884,-0.0884 -0.18958,0.19388 -0.22488,0.62769 -0.0744,0.91391 0.26657,1.42396 0.4419,0.66094 0.19028,-0.8281 0.57496,-0.7459 0.86685,0.1851 0.26474,0.84437 0.25884,0.86032 -0.2715,0.73657 -0.36313,-0.0847 -0.5612,0.0257 -0.60013,0.33499 -0.032,0.25394 -0.0917,0.54589 -0.13237,0.64844 l 5.3e-4,-1.2e-4 c -0.13247,0.33432 -0.25322,0.16101 -0.73238,-1.0533 -0.25968,-0.65808 -0.5721,-1.22036 -0.69365,-1.24874 -0.39342,-0.0918 -0.4255,0.78133 -0.0458,1.24121 0.24149,0.2925 0.25355,0.42252 0.035,0.37718 -0.18364,-0.0381 -0.54085,-0.45295 -0.7938,-0.92274 -0.359201,-0.66711 -0.384381,-1.01539 -0.11562,-1.589 0.50502,-1.07784 0.83048,-2.47616 0.66947,-2.87548 -0.0773,-0.19181 -0.12562,-0.66172 -0.10734,-1.04382 0.004,-0.0753 0.0103,-0.14301 0.0195,-0.2045 -0.10342,-0.0558 -0.18673,-0.0815 -0.23545,-0.0665 -0.37351,0.11441 -0.997452,-0.45752 -1.003575,-0.92031 -0.0042,-0.31451 0.07382,-0.33266 0.375312,-0.0873 0.306503,0.24946 0.463763,0.17709 0.809663,-0.37066 0.17244,-0.27308 0.30394,-0.43036 0.4416,-0.49369 0.0172,-0.008 0.0346,-0.0141 0.0521,-0.0192 z" /><path
       style="display:inline;opacity:0.25;fill:#000000;fill-opacity:1;stroke-width:0.26357"
       d="m 110.05601,248.30836 c 0.34597,0.13672 -0.39854,2.29312 -0.93063,2.69523 -0.27168,0.20531 -0.0551,0.45552 0.50492,0.58246 0.28977,0.0657 0.0544,1.06872 -0.67026,2.85482 -0.3609,0.88946 -0.61753,1.81109 -0.57039,2.04812 0.0471,0.23703 -0.2485,1.29001 -0.65682,2.33968 l -0.7426,1.90856 -1.05652,-0.46469 c -0.8015,-0.35231 -1.04274,-0.58479 -0.99825,-0.96233 0.0745,-0.63316 -0.31319,-0.80221 -0.56192,-0.2452 -0.32432,0.72628 -0.0756,-1.15559 0.36596,-2.76877 0.23165,-0.84632 0.39948,-1.5962 0.37318,-1.66623 -0.0263,-0.07 0.15405,-0.30032 0.40039,-0.51182 0.31757,-0.27264 0.40036,-0.49357 0.28526,-0.75923 -0.11739,-0.27098 -0.21789,-0.23172 -0.363,0.14113 -0.11035,0.28354 -0.37386,0.51419 -0.58597,0.51262 -0.21795,-0.002 -0.44674,0.26121 -0.52611,0.60421 -0.63012,2.72274 -0.78344,3.53902 -0.72475,3.86438 0.0372,0.20613 -0.0486,0.32906 -0.19094,0.27279 -0.33098,-0.13081 -0.78824,1.01775 -0.53868,1.35308 0.10352,0.13909 0.0789,0.33538 -0.0547,0.43634 -0.36841,0.27842 -0.75688,-0.18794 -0.53411,-0.64124 0.15427,-0.31391 0.10034,-0.3673 -0.2522,-0.24997 -0.24657,0.082 -0.42257,0.29207 -0.39097,0.46731 0.0333,0.18452 -0.0321,0.19859 -0.15533,0.033 -0.11704,-0.15727 -0.2431,-0.54361 -0.28004,-0.85861 -0.0543,-0.46293 -0.006,-0.51703 0.2493,-0.28174 0.17395,0.16011 0.3497,0.19472 0.39061,0.0769 0.12472,-0.35935 -0.22209,-1.32608 -0.51793,-1.443 -0.15323,-0.0606 -0.2313,-0.23184 -0.17336,-0.3807 0.0579,-0.14888 0.0869,-0.68121 0.0647,-1.18253 -0.0888,-2.01078 0.0903,-2.25814 1.26734,-1.75348 0.21632,0.0927 0.27354,-0.0546 0.24313,-0.62403 -0.0307,-0.57508 -0.0946,-0.65731 -0.28117,-0.36016 -0.3038,0.48399 -0.99221,0.24473 -0.79008,-0.27461 0.0822,-0.21121 0.23301,-0.27202 0.33486,-0.13516 0.10184,0.13684 0.22817,0.13901 0.28045,0.005 0.0523,-0.13433 0.37243,-0.22417 0.71194,-0.19974 0.33951,0.0244 0.74623,-0.0475 0.90381,-0.15954 0.18204,-0.12944 0.23802,-0.0414 0.15323,0.24114 -0.25953,0.8645 -0.26181,0.96232 -0.0236,1.06761 0.13235,0.0585 0.37295,-0.12301 0.53486,-0.40318 0.23644,-0.40915 0.31591,-0.42189 0.40271,-0.0652 0.0816,0.33509 0.13159,0.29648 0.20342,-0.1577 0.0634,-0.40138 0.20942,-0.55672 0.43867,-0.46611 0.18907,0.0747 0.42688,-0.0549 0.52861,-0.28829 0.15963,-0.36619 0.19032,-0.34455 0.22394,0.15935 0.0271,0.4069 0.157,0.15672 0.42873,-0.82535 0.37242,-1.34589 0.39812,-1.37722 0.56688,-0.69924 0.0971,0.39038 0.0881,0.7771 -0.02,0.85882 -0.36662,0.27704 -0.0673,0.90494 0.43319,0.90866 0.36964,0.003 0.4345,-0.0753 0.25915,-0.31094 -0.40757,-0.54766 -0.0915,-1.15534 0.48687,-0.93616 0.48949,0.1855 0.50433,0.16715 0.19049,-0.23193 -0.26907,-0.34213 -0.25157,-0.48273 0.0833,-0.66898 0.50051,-0.27837 0.31185,-0.39541 -0.48441,-0.30059 -0.4501,0.0536 -0.54077,-0.0123 -0.42497,-0.30986 0.16555,-0.42535 -0.18298,-0.65799 -0.55958,-0.37338 -0.4172,0.31528 -1.87737,-0.40376 -1.87359,-0.92261 0.007,-0.91558 0.5973,-1.28681 1.48729,-0.93506 0.47576,0.18802 0.76812,0.43637 0.67474,0.57357 -0.0906,0.13309 0.014,0.50761 0.23262,0.83225 0.42117,0.62548 0.5499,0.56447 1.61297,-0.765 0.16621,-0.20786 0.44306,-0.32243 0.61533,-0.25435 z"
       id="path2901" /><path
       style="display:inline;opacity:0.25;fill:#000000;fill-opacity:1;stroke-width:0.264583"
       d="m 113.04774,240.91612 c -0.60898,0.0315 -0.85767,0.18139 -0.98185,0.59169 -0.23948,0.79119 0.1952,1.41223 0.62063,0.88677 0.2236,-0.27617 0.33987,-0.30868 0.38034,-0.10645 0.032,0.16016 -0.0371,0.31 -0.15348,0.33331 -0.41932,0.0839 -0.83073,3.06424 -0.48524,3.51503 0.18084,0.23597 1.00424,1.28035 1.82986,2.32079 0.82561,1.04043 1.53477,2.05199 1.57613,2.24792 0.0413,0.19595 0.64399,0.7792 1.33894,1.29605 0.69494,0.51684 1.31391,1.19176 1.37562,1.50016 0.11362,0.56777 1.42162,1.18373 1.68259,0.7922 0.22726,-0.34097 0.98936,0.5145 1.15497,1.29657 0.18071,0.85344 1.20582,2.09403 1.65571,2.00401 0.16918,-0.0339 0.63014,0.29903 1.02474,0.73949 0.84811,0.94666 1.09389,0.94924 1.37666,0.015 0.16933,-0.55946 0.0845,-1.00929 -0.43408,-2.29288 -0.64006,-1.58417 -1.353,-2.69875 -1.18701,-1.8557 0.0422,0.21416 0.36513,0.92748 0.71779,1.58543 0.35265,0.65794 0.6584,1.32543 0.67954,1.48312 0.0736,0.54906 -1.50561,-2.38062 -1.90789,-3.53932 -0.40513,-1.16689 -0.40502,-1.16693 -1.36478,-0.70797 -0.52785,0.25243 -1.2663,0.44396 -1.64072,0.42581 -0.77565,-0.0376 -1.98297,-0.81204 -1.84485,-1.18339 0.0506,-0.13605 -0.12044,-0.21025 -0.37982,-0.16484 -0.70047,0.12256 1.28641,-1.02327 2.52594,-1.45676 0.65286,-0.22832 1.092,-0.2724 1.12396,-0.11266 0.0289,0.14419 0.2793,0.41361 0.55656,0.59841 0.52662,0.35101 0.51317,0.56911 -0.0491,0.80357 -1.05328,0.43921 -1.65635,0.84325 -1.50379,1.00666 0.0957,0.1025 0.52934,0.003 0.96377,-0.22169 1.16973,-0.60421 1.29383,-0.58913 1.9358,0.23926 0.35259,0.45498 0.55995,0.58219 0.51728,0.31729 -0.0392,-0.24311 -0.20243,-0.49071 -0.36277,-0.55035 -0.16034,-0.0596 -0.35008,-0.4013 -0.42168,-0.75913 -0.0716,-0.35783 -0.52259,-0.99615 -1.00252,-1.41851 -0.82229,-0.7237 -0.93691,-0.74595 -1.98593,-0.38396 -0.61225,0.21128 -1.30524,0.56533 -1.53995,0.78651 -0.23471,0.22119 -0.47227,0.35517 -0.52762,0.29766 -0.0554,-0.0575 -0.39706,-0.47039 -0.75965,-0.91726 -0.65924,-0.81248 -0.65914,-0.81235 0.0816,-0.35346 0.99993,0.61941 1.85555,0.42438 1.89705,-0.43202 0.0177,-0.36613 -0.0607,-0.76479 -0.17416,-0.88625 -0.11339,-0.12148 -0.077,-0.2944 0.0806,-0.38447 0.15759,-0.0901 0.18177,-0.2763 0.0537,-0.41341 -0.16784,-0.17979 -0.3962,-0.12963 -0.81907,0.17983 -0.71087,0.52025 -0.69506,0.69738 0.11007,1.23403 0.62271,0.41506 0.62244,0.41537 -0.0108,0.54209 -0.34831,0.0697 -0.72744,0.0254 -0.84285,-0.0982 -0.12649,-0.13548 -0.01,-0.19089 0.29353,-0.13953 0.4735,0.0801 0.47065,0.0528 -0.045,-0.46612 -0.30141,-0.30333 -0.80064,-0.50105 -1.1095,-0.43925 -0.69883,0.13983 -1.11815,-0.28538 -1.12551,-1.14154 -0.006,-0.7067 0.6167,-0.99851 1.24179,-0.58187 0.2459,0.16391 0.3543,0.15294 0.31729,-0.032 -0.0981,-0.49048 0.90334,-0.78636 1.33945,-0.39584 0.22464,0.20116 0.6449,0.4851 0.9338,0.63097 0.45411,0.22929 0.51375,0.20752 0.44028,-0.15968 -0.0468,-0.23361 -0.51038,-0.57677 -1.02991,-0.76275 -0.5658,-0.20254 -1.32634,-0.82758 -1.89704,-1.55804 -0.80905,-1.03552 -0.90976,-1.28397 -0.66715,-1.64796 0.51928,-0.77907 0.14839,-1.02333 -0.99477,-0.65578 -0.0803,0.0258 -0.43433,-0.1765 -0.78703,-0.44958 -0.3527,-0.27309 -0.73851,-0.47748 -0.85731,-0.45372 -0.1188,0.0238 -0.33465,-0.0433 -0.47956,-0.14935 -0.15306,-0.11208 -0.11193,-0.14204 0.0982,-0.0713 0.1989,0.0669 0.33963,0.0114 0.31264,-0.12351 -0.027,-0.13492 -0.41607,-0.22632 -0.86455,-0.20308 z"
       id="path2897" /><path
       style="display:inline;opacity:0.25;fill:#000000;fill-opacity:1;stroke-width:0.26357"
       d="m 106.45605,242.05343 c 0.16364,-0.0733 0.78782,-0.42116 1.3865,-0.77326 0.59869,-0.35208 1.14084,-0.62131 1.20489,-0.59804 0.0641,0.0233 0.22951,-0.16305 0.36787,-0.41412 0.21991,-0.39904 0.35183,-0.24255 1.05027,1.24258 0.85255,1.8128 0.94208,3.05847 0.32893,4.58393 -0.34733,0.86414 -1.12442,1.04539 -1.79349,0.41839 -0.32981,-0.30905 -0.42326,-0.31855 -0.32683,-0.0336 0.10755,0.31779 -0.0586,0.44069 -0.81464,0.60309 -0.7614,0.16352 -1.01437,0.0884 -1.27602,-0.37786 -0.17947,-0.31987 -0.4623,-0.71958 -0.6286,-0.88859 -0.39635,-0.4028 -0.51358,-0.56447 -0.72203,-0.99462 -0.0954,-0.19683 -0.33843,-0.29299 -0.5403,-0.21383 -0.20187,0.0792 -0.40532,0.046 -0.45166,-0.074 -0.0463,-0.11999 0.51928,-0.54311 1.25698,-0.94006 0.73771,-0.39695 1.59322,-0.89028 1.90114,-1.09607 0.52795,-0.35285 0.54161,-0.34333 0.23767,0.16463 -0.22482,0.37573 -0.21868,0.50231 0.0204,0.41798 0.18852,-0.0665 0.53963,-0.11604 0.77997,-0.10977 0.30249,0.008 0.38949,-0.14431 0.28362,-0.49418 -0.11509,-0.3804 -0.36178,-0.46557 -0.99839,-0.34506 -0.46522,0.0881 -0.9384,0.23726 -1.05125,0.33169 -0.11285,0.0944 -0.27424,0.0707 -0.35876,-0.0523 -0.0845,-0.12301 -0.0199,-0.28352 0.14371,-0.35686 z"
       id="path2895" /><path
       style="display:inline;opacity:0.25;fill:#000000;fill-opacity:1;stroke-width:0.264583"
       d="m 94.298834,238.76127 c -0.244321,-0.0295 -0.65601,0.13849 -1.316342,0.52713 -0.682723,0.40181 -1.305433,0.80911 -1.383637,0.90525 -0.219125,0.26936 -2.109692,0.89184 -2.246026,0.73947 -0.06644,-0.0742 -0.342245,0.19621 -0.612782,0.60115 -0.270543,0.40495 -0.848237,0.9476 -1.284122,1.20584 -0.435885,0.25824 -0.798237,0.56671 -0.805342,0.68535 -0.007,0.11865 -0.342148,0.60058 -0.744482,1.0715 -0.402331,0.47091 -0.766288,1.02711 -0.808828,1.23581 -0.109343,0.53623 -0.763339,1.18998 -1.168007,1.16753 -0.354536,-0.0197 -2.260726,1.66364 -2.741412,2.42084 -0.202404,0.31884 -0.07221,0.29075 0.496439,-0.10762 0.424001,-0.29703 0.852033,-0.53574 0.951008,-0.53028 0.09897,0.006 0.414663,0.67895 0.701553,1.49646 0.286883,0.81751 0.687536,1.4956 0.890478,1.50685 0.259774,0.0144 0.124093,-0.50976 -0.458096,-1.77139 -0.754511,-1.63509 -0.863934,-2.52108 -0.259593,-2.09959 0.13062,0.0911 0.244587,0.0355 0.25341,-0.12345 0.0428,-0.77153 1.019744,0.46331 1.837328,2.32266 l -5.03e-4,-1.3e-4 c 0.4964,1.12892 1.004579,1.99764 1.129151,1.92988 0.124578,-0.0677 0.144664,-0.3892 0.04464,-0.71382 -0.137942,-0.44765 -0.04194,-0.68619 0.397632,-0.98714 0.893048,-0.61155 2.22876,-0.90303 3.179056,-0.69422 0.655549,0.14406 1.137567,0.0291 2.019621,-0.48095 0.637244,-0.36848 1.164839,-0.78152 1.172422,-0.9182 0.0076,-0.13667 0.418886,-0.56465 0.913982,-0.95083 0.900263,-0.70212 0.900181,-0.70186 0.437179,-1.68946 -0.639982,-1.36508 -0.625726,-1.67282 0.100526,-2.18159 0.472604,-0.33108 0.650891,-0.72165 0.708432,-1.55157 0.0537,-0.77453 -0.03311,-1.11494 -0.287843,-1.12907 -0.200599,-0.0111 -0.51784,-0.26656 -0.704659,-0.56748 -0.186825,-0.30092 -0.391533,-0.52103 -0.454859,-0.48904 -0.06331,0.032 0.02357,-0.0533 0.193146,-0.18973 0.21871,-0.17589 0.230873,-0.33461 0.0418,-0.54589 -0.04727,-0.0528 -0.109826,-0.0845 -0.191267,-0.0943 z m -2.14947,2.13989 c 0.14513,0.10122 0.676601,1.20871 1.180841,2.46097 l 0.91671,2.27689 -0.797748,1.11857 c -0.438867,0.61538 -0.875726,1.06484 -0.97064,0.99864 -0.09492,-0.0662 -0.329118,0.0487 -0.520671,0.25507 -0.376858,0.40604 -1.790081,0.42559 -2.34031,0.0325 -0.270959,-0.1936 -0.248484,-0.27234 0.11149,-0.38804 0.248417,-0.0799 0.556058,-0.0725 0.68371,0.0166 0.127643,0.089 0.248923,-0.14243 0.269544,-0.51425 0.04934,-0.88934 0.777352,-0.8552 0.950836,0.0445 0.173161,0.89814 0.855373,0.44188 0.730456,-0.48854 -0.05248,-0.39092 0.09316,-0.81757 0.360709,-1.057 0.659532,-0.5902 0.63917,-1.24425 -0.02895,-0.93299 -0.286182,0.13332 -0.588677,0.38939 -0.672685,0.56859 -0.08564,0.18268 -0.149534,0.10248 -0.145447,-0.18277 0.004,-0.27979 -0.16814,-0.7261 -0.382689,-0.99133 -0.357947,-0.44253 -0.343152,-0.49414 0.181839,-0.62926 0.682127,-0.17556 0.608917,-0.75149 -0.105348,-0.82944 -0.927341,-0.10119 -1.029368,-0.17701 -0.560589,-0.41655 0.657251,-0.33585 0.380902,-1.10161 -0.285511,-0.79114 -0.274431,0.12785 -0.65497,0.21547 -0.845569,0.19458 -0.190608,-0.0209 0.183064,-0.23835 0.830063,-0.48361 0.647,-0.24526 1.294815,-0.36316 1.43995,-0.26194 z m -2.881189,1.60278 c 1.064097,0.20304 1.297286,0.85255 0.547171,1.5238 -0.341611,0.3057 -0.568398,0.71853 -0.504492,0.91736 0.06391,0.19883 -0.05861,0.41738 -0.271824,0.48591 -0.42595,0.1369 -0.597818,1.18951 -0.19787,1.2117 0.137054,0.008 0.428176,-0.21405 0.647141,-0.49246 0.218945,-0.27844 0.456336,-0.44109 0.527407,-0.36168 0.07106,0.0794 0.297645,-0.0371 0.503528,-0.25896 0.272041,-0.29311 0.295445,-0.45858 0.08539,-0.60508 -0.158974,-0.11087 -0.188581,-0.34526 -0.06606,-0.52093 0.157192,-0.22539 0.300989,-0.11874 0.488703,0.36222 0.241284,0.61822 0.163176,0.77269 -0.841168,1.66245 -0.608979,0.53951 -1.125203,1.07912 -1.146696,1.19866 -0.02147,0.11954 -0.619216,0.68122 -1.328703,1.24823 l -1.290129,1.03082 -0.669253,-1.04937 c -0.766159,-1.20108 -0.808211,-1.51541 -0.227272,-1.70214 0.275359,-0.0885 0.409852,-0.42588 0.402948,-1.00978 -0.01438,-1.21523 0.316639,-1.65048 0.859636,-1.13087 0.887449,0.84923 1.033839,0.81593 1.681189,-0.38374 0.47813,-0.88607 0.567764,-1.26497 0.355218,-1.50249 -0.471202,-0.52655 -0.300434,-0.76592 0.445132,-0.62365 z"
       id="path2893" /><path
       style="display:inline;opacity:0.25;fill:#000000;fill-opacity:1;stroke-width:0.264583"
       d="m 98.58335,186.85156 c -0.0604,0.005 -0.0812,0.0595 -0.069,0.16496 0.0189,0.16223 -0.14284,0.31556 -0.35966,0.34083 -0.40031,0.0466 -0.42584,0.14681 -0.36669,1.44307 0.0183,0.40172 -0.15246,0.99077 -0.37963,1.30928 -0.45994,0.64489 -1.623601,0.91089 -1.684884,0.38507 -0.04006,-0.34375 -0.411766,-0.37876 -2.288715,-0.21435 -1.392785,0.12201 -2.437217,-0.30001 -2.967821,-1.19996 -0.414448,-0.70292 -0.459809,-0.71463 -1.10926,-0.2767 -0.372513,0.25118 -0.860913,0.47846 -1.084905,0.50457 -0.546594,0.0637 -0.465831,0.49555 0.142168,0.76081 0.270118,0.11786 0.403088,0.22848 0.295192,0.2455 -0.670828,0.10587 -2.784153,1.53992 -3.175918,2.15527 -0.27572,0.43306 -0.258412,0.46244 0.151052,0.25187 1.331927,-0.68494 1.70824,-0.61472 0.610786,0.11416 -0.668443,0.44396 -1.45401,1.16086 -1.745649,1.59284 -0.291639,0.43198 -0.546219,0.67888 -0.56586,0.5485 -0.04924,-0.3267 -0.530047,0.7935 -0.549998,1.28137 -0.0089,0.21717 0.11845,0.45736 0.283018,0.53434 0.195269,0.0913 0.149915,0.4231 -0.129765,0.9543 -0.235724,0.44771 -0.655824,1.277 -0.933923,1.84318 -0.325667,0.66303 -0.649279,0.99285 -0.908844,0.92647 -0.234042,-0.0599 -0.319854,0.002 -0.20489,0.14711 0.122161,0.15431 -0.07972,0.24546 -0.527583,0.23846 -0.399182,-0.006 -0.569863,0.041 -0.379278,0.10487 0.424213,0.14229 0.606054,1.37343 0.209699,1.41962 -0.156582,0.0183 -0.25342,-0.11805 -0.214782,-0.30322 0.102322,-0.49031 -1.271809,-0.97482 -1.483203,-0.52292 -0.12443,0.266 -0.262151,0.27637 -0.616096,0.0461 -0.405999,-0.26409 -0.432751,-0.16113 -0.243771,0.94085 0.233621,1.36234 0.172167,1.44731 -1.585465,2.19647 -1.313373,0.5598 -1.62577,1.51185 -0.451354,1.37498 0.411566,-0.048 0.807425,-0.21392 0.879912,-0.36887 0.07249,-0.15495 0.385346,-0.31155 0.695156,-0.34766 0.309809,-0.0361 0.90893,-0.48899 1.331727,-1.00652 0.745129,-0.91207 0.771231,-0.92231 0.840064,-0.33169 0.0587,0.5037 0.130646,0.54652 0.416391,0.2471 0.19012,-0.19922 0.478256,-0.30028 0.64,-0.22462 0.161736,0.0757 0.275704,-0.0184 0.253494,-0.20899 -0.02221,-0.19057 0.183314,-0.52491 0.456271,-0.74306 0.428085,-0.34214 0.924738,-1.46836 0.922603,-2.09194 -7.4e-4,-0.21498 2.306711,-2.98354 3.01422,-3.6166 0.331686,-0.29677 0.628866,-0.34362 1.229059,-0.19363 0.654572,0.16359 0.87292,0.10545 1.257627,-0.33388 0.345451,-0.39451 0.728116,-0.524 1.486075,-0.50292 0.561559,0.0156 1.099208,0.0238 1.194651,0.0182 0.09544,-0.006 0.07465,0.28346 -0.04623,0.64226 -0.150648,0.44724 -0.380931,0.63009 -0.732316,0.58054 -0.458959,-0.0646 -0.470027,-0.0188 -0.10333,0.44005 0.364371,0.4559 0.557749,0.47488 1.550691,0.15357 0.05259,-0.017 -0.07223,-0.19079 -0.277448,-0.38663 -0.536564,-0.51208 -0.01005,-1.27502 0.772698,-1.11957 0.316272,0.0628 0.841769,0.0987 1.167336,0.0798 1.044007,-0.0608 1.299491,0.37089 0.960536,1.62195 -0.167468,0.61807 -0.271156,1.3273 -0.230823,1.57601 0.04036,0.24872 0.206767,-0.1385 0.370462,-0.8605 0.337947,-1.49117 0.75783,-1.95722 1.500055,-1.66474 0.278379,0.1097 0.94697,0.134 1.485728,0.0539 0.53874,-0.0801 1.52109,-0.12546 2.18326,-0.10069 0.66216,0.0248 1.34129,0.035 1.50901,0.0226 0.16773,-0.0124 0.25701,0.17295 0.19814,0.41178 -0.091,0.36922 -0.0493,0.37516 0.27837,0.0388 0.32498,-0.33359 0.47277,-0.32691 0.94112,0.0437 0.30555,0.24177 0.77957,0.49704 1.05391,0.5672 0.27434,0.0702 0.43856,0.20428 0.36454,0.29783 -0.074,0.0935 0.3983,0.59585 1.04951,1.11643 1.18404,0.94651 1.18382,0.94679 0.6234,1.49643 -0.54868,0.53814 -0.53418,0.53815 0.69881,0.014 0.72706,-0.30906 1.33403,-0.44117 1.4358,-0.3126 0.10184,0.12866 0.32137,0.10785 0.51992,-0.0493 0.26972,-0.21351 0.26673,-0.34537 -0.0142,-0.61349 -0.30029,-0.28659 -0.2391,-0.33302 0.37867,-0.28795 0.96772,0.0706 1.48191,0.48594 1.23544,0.99837 -0.30174,0.62732 -0.16363,1.06145 0.32028,1.00505 0.37716,-0.044 0.36888,0.0363 -0.0562,0.53619 -0.475,0.55852 -1.48348,0.65569 -1.23228,0.1187 0.0649,-0.1387 -0.0665,-0.23052 -0.29182,-0.20426 -0.22534,0.0263 -0.42498,-0.0836 -0.44363,-0.24361 -0.0186,-0.16002 -0.20314,-0.20211 -0.41026,-0.0936 -0.2071,0.10844 -0.39286,0.059 -0.41255,-0.1099 -0.0248,-0.21238 -0.12469,-0.18793 -0.32379,0.0793 -0.21991,0.29521 -0.21069,0.40538 0.0392,0.46569 0.17997,0.0434 0.28227,0.25647 0.22683,0.47323 -0.0554,0.21675 0.0382,0.37799 0.20822,0.35816 0.39333,-0.0458 0.37408,1.07843 -0.0216,1.26178 -0.18506,0.0858 -0.26821,-0.0628 -0.22116,-0.39655 0.12268,-0.87211 -0.88396,-1.10741 -2.38465,-0.55712 -1.35392,0.49648 -2.11409,0.40346 -1.50769,-0.1848 0.55464,-0.53804 0.4974,-1.08138 -0.11749,-1.11396 -0.38439,-0.0204 -0.60727,0.16954 -0.7267,0.61988 -0.1708,0.64394 -0.18566,0.64813 -1.66197,0.44086 -0.81918,-0.11502 -1.54184,-0.31832 -1.60621,-0.45157 -0.0644,-0.13324 -0.26447,-0.22481 -0.4448,-0.20379 -0.18035,0.021 -0.52644,-0.24738 -0.76897,-0.5963 -0.40767,-0.58651 -0.46221,-0.59673 -0.72244,-0.13728 -0.20736,0.36609 -0.19431,0.57997 0.0498,0.8129 0.47151,0.45 0.0613,0.43351 -0.512654,-0.0206 -0.314251,-0.24867 -0.50206,-0.27277 -0.544404,-0.0699 -0.0837,0.4011 -0.556326,0.46055 -0.514959,0.0648 0.01733,-0.16568 -0.197387,-0.31248 -0.477332,-0.32621 -0.279939,-0.0137 -0.614526,-0.15836 -0.743225,-0.32096 -0.145547,-0.18387 -0.408818,-0.19553 -0.696349,-0.0314 -0.254256,0.14509 -0.89662,0.33357 -1.427895,0.41901 -0.921931,0.14827 -0.96805,0.11877 -1.008566,-0.65268 -0.02336,-0.44456 0.05282,-0.89591 0.168992,-1.00295 0.26818,-0.24709 -0.151461,-0.80273 -0.436081,-0.57742 -0.116369,0.0921 -0.343201,0.5308 -0.503735,0.9751 -0.245636,0.67982 -0.236257,0.77899 0.05894,0.6244 0.241138,-0.12629 0.315632,-0.0467 0.238389,0.25537 -0.09407,0.36783 -0.569277,0.48762 -2.918921,0.73487 -2.966586,0.31219 -4.581214,0.722 -4.290708,1.08899 0.09633,0.12167 -0.01362,0.1733 -0.244208,0.11435 -0.23047,-0.0589 -0.585644,0.10344 -0.789589,0.3612 -0.203953,0.25776 -0.59191,0.49437 -0.86214,0.52586 -0.270228,0.0315 -0.55093,0.18405 -0.623417,0.339 -0.07249,0.15496 -0.272526,0.29776 -0.444797,0.31677 -0.17226,0.0191 0.01272,-0.25137 0.411491,-0.60102 0.757696,-0.66436 0.781733,-0.665 -0.995235,0.0287 -1.136405,0.4436 -1.947379,1.00505 -1.910294,1.32326 0.02807,0.24086 -0.63924,0.38349 -2.589851,0.55279 -1.978329,0.1717 -2.649998,0.31681 -2.719186,0.58733 -0.07215,0.28214 -0.241419,0.31133 -0.788252,0.13526 -0.596683,-0.19213 -0.644281,-0.2732 -0.330361,-0.56412 0.322724,-0.29908 0.296652,-0.39879 -0.219366,-0.83764 -0.322201,-0.27401 -0.522571,-0.57828 -0.445131,-0.67615 0.07744,-0.0979 0.0055,-0.16206 -0.160482,-0.14272 -0.211385,0.0246 -0.19649,0.60096 0.05073,1.92512 0.194086,1.03955 0.282274,2.30989 0.195698,2.82305 -0.204204,1.21016 -0.02667,1.31267 0.850668,0.49098 0.572986,-0.53664 0.727087,-0.591 0.764507,-0.26993 0.02577,0.22115 0.223831,0.38168 0.440647,0.35641 0.62258,-0.0726 0.565038,0.84574 -0.09899,1.57433 -0.388369,0.42613 -0.79476,0.6274 -1.133647,0.56177 -0.481867,-0.0933 -0.512163,0.0338 -0.346462,1.45561 0.181355,1.5561 0.182759,1.55812 0.889388,1.34394 0.758327,-0.22984 1.319233,-0.67866 1.27913,-1.02275 -0.01358,-0.11651 -0.249036,-0.38923 -0.523418,-0.60632 -0.469553,-0.37153 -0.467314,-0.42692 0.03649,-0.94222 0.2944,-0.30112 0.714209,-0.50143 0.933342,-0.44539 0.226815,0.058 0.382251,-0.0519 0.360961,-0.25518 -0.02897,-0.27554 0.03131,-0.27429 0.263338,0.007 0.493764,0.59855 0.456466,1.31635 -0.102514,1.97949 -0.433889,0.51476 -1.044072,1.89549 -1.00102,2.26493 0.02,0.17158 2.644323,-1.27103 2.759297,-1.51681 0.18867,-0.40332 0.772367,0.0319 0.75655,0.56418 -0.0081,0.27397 -0.216152,0.68496 -0.462384,0.91314 -0.567651,0.52616 -2.171897,0.73467 -2.229291,0.2898 -0.03032,-0.23506 -0.0871,-0.23729 -0.200554,-0.008 -0.08709,0.17633 -0.388126,0.39263 -0.668671,0.48048 -0.35948,0.11256 -0.53782,0.47626 -0.604109,1.23288 -0.191267,2.18262 -0.179274,2.81511 0.05286,2.78806 0.130814,-0.0152 0.31489,0.41272 0.409197,0.95113 0.262167,1.49667 1.053871,3.42789 1.348533,3.28996 0.310876,-0.1455 0.30439,-1.55134 -0.007,-1.51505 -0.11755,0.0137 -0.287877,-0.53556 -0.37888,-1.22086 -0.143879,-1.08357 -0.113543,-1.19124 0.232331,-0.82616 0.218741,0.23089 0.460321,0.41205 0.536899,0.40315 0.193906,-0.0226 -0.310411,-1.93117 -0.546206,-2.06721 -0.299371,-0.17271 -0.248147,-0.54603 0.252927,-1.85315 0.411701,-1.07395 0.507437,-1.16537 0.840429,-0.80606 0.342502,0.36958 0.401948,0.36445 0.673718,-0.0534 0.412784,-0.6346 1.009858,-0.6482 1.082535,-0.0246 0.03321,0.28497 -0.157266,1.22113 -0.423394,2.08033 -0.266204,0.85919 -0.459959,1.76567 -0.430971,2.01438 0.02898,0.2487 -0.159203,0.69407 -0.417795,0.98937 -0.672524,0.76801 -0.53821,1.35484 0.252946,1.10584 0.34838,-0.10964 0.691571,-0.0751 0.762641,0.0768 0.09102,0.19447 0.32875,0.15504 0.805164,-0.13284 0.371952,-0.22476 0.839108,-0.42766 1.038002,-0.45084 0.198889,-0.0232 0.702075,-0.47141 1.117771,-0.996 0.755801,-0.95379 0.755497,-0.95391 0.372064,-4.41095 -0.322208,-2.90497 -0.319528,-3.54657 0.01701,-4.01842 0.220271,-0.30884 0.385078,-0.69301 0.366307,-0.85411 -0.01878,-0.16109 0.207552,-0.50794 0.502575,-0.77039 0.295034,-0.26244 0.43027,-0.46498 0.300639,-0.44987 -0.129628,0.0151 -0.02466,-0.26669 0.233653,-0.62643 0.258317,-0.35974 0.576255,-0.93631 0.70604,-1.28108 0.129788,-0.34477 0.444438,-0.65096 0.699534,-0.68069 0.255085,-0.0297 0.570288,-0.18822 0.700212,-0.35243 0.129927,-0.1642 0.580581,-0.44234 1.001888,-0.61815 0.622727,-0.25987 0.834273,-0.23488 1.130136,0.13531 0.466777,0.58405 0.533375,1.16875 0.153445,1.34659 -0.174437,0.0816 -0.200216,0.32657 -0.06217,0.59014 0.140232,0.26777 0.387593,0.37071 0.610247,0.25411 0.205951,-0.10785 0.379676,-0.15038 0.386205,-0.0945 0.0065,0.0559 0.115367,0.2987 0.241613,0.53976 0.153025,0.2922 0.123284,0.3888 -0.08947,0.28927 -0.175527,-0.0821 -0.759199,0.20596 -1.29715,0.64019 -1.19534,0.96488 -1.325549,0.98503 -1.931574,0.30115 -0.481401,-0.54324 -0.48136,-0.54335 -0.429498,0.0215 0.02852,0.31064 0.258381,0.61796 0.510972,0.68257 0.40533,0.10365 0.397553,0.17192 -0.06528,0.58366 -0.288416,0.25657 -0.509844,0.58807 -0.492548,0.73648 0.0173,0.1484 0.323923,-5.3e-4 0.681881,-0.33112 0.591524,-0.54621 0.710344,-0.57111 1.300078,-0.27597 0.580702,0.29061 0.643707,0.2818 0.601055,-0.0842 -0.02621,-0.22492 -0.191569,-0.47653 -0.367601,-0.55887 -0.211825,-0.0991 -0.127309,-0.33736 0.25043,-0.70491 0.713608,-0.69408 0.91298,-0.72157 1.626103,-0.22395 0.555718,0.38778 0.566374,0.37898 0.35784,-0.2995 -0.19763,-0.64299 -0.116408,-0.74499 1.013837,-1.27254 0.67569,-0.31539 1.151072,-0.67091 1.056402,-0.79051 -0.09467,-0.1196 -0.618141,0.024 -1.163102,0.31931 -0.578742,0.31364 -1.192073,0.47559 -1.474725,0.38926 -0.266172,-0.0812 -0.558707,-0.124 -0.650191,-0.0951 -0.09148,0.0289 -0.132175,-0.19065 -0.0903,-0.488 0.180913,-1.28603 2.008435,-1.80088 3.159718,-0.88994 0.326345,0.2582 0.575233,0.50163 0.553132,0.54083 -0.142793,0.25333 0.47439,1.23124 0.676246,1.07144 0.137298,-0.10868 0.162751,-0.36353 0.05661,-0.56622 -0.106225,-0.2027 -0.09164,-0.38164 0.03198,-0.39818 0.12364,-0.0164 0.511616,-0.13763 0.862488,-0.26971 0.51885,-0.1953 0.585406,-0.16893 0.356002,0.1421 -0.170733,0.23148 -0.176313,0.48345 -0.01426,0.63813 0.241424,0.23041 0.244986,0.86205 0.01765,3.34617 -0.1167,1.27516 -0.06927,2.88777 0.151527,5.14848 0.239487,2.45225 0.283249,2.37487 -1.407402,2.4604 -0.436936,0.0221 -1.023626,-0.12121 -1.303907,-0.31853 -0.553474,-0.38964 -0.876553,-0.18417 -0.801142,0.50907 0.02627,0.24148 -0.385529,0.73192 -0.916081,1.09128 -1.429604,0.96833 -2.322687,2.54575 -2.341084,4.1356 -0.0085,0.73257 0.0583,1.3234 0.147892,1.31296 0.08959,-0.0104 0.349246,0.35554 0.57758,0.81295 0.821528,1.64573 3.16107,2.95771 5.545796,3.11055 0.96244,0.0617 1.011459,0.10972 1.127291,1.1036 0.132001,1.13263 -0.202726,1.43468 -0.578178,0.52158 -0.211883,-0.51532 -0.256212,-0.52388 -0.448913,-0.0901 -0.265941,0.59872 -1.335875,0.40014 -2.184454,-0.40545 -0.307404,-0.29183 -0.545254,-0.38257 -0.529006,-0.20133 0.04257,0.47483 -0.580679,0.47718 -1.370781,0.005 -1.353146,-0.80822 -1.749843,-0.65054 -0.491395,0.19528 0.708278,0.47603 1.413235,0.86692 1.566436,0.86881 0.153202,0.002 0.428011,-2e-4 0.610632,-0.005 0.182687,-0.004 0.352814,0.16922 0.378081,0.38603 0.02527,0.21681 0.200965,0.37648 0.39052,0.35439 0.189555,-0.0221 0.647327,0.18192 1.017033,0.45375 0.369705,0.27182 1.002406,0.4676 1.406366,0.43525 0.403956,-0.0324 0.696931,0.022 0.651222,0.12057 -0.109818,0.23674 0.865391,0.40263 2.265913,0.38566 0.621773,-0.008 1.117734,-0.12188 1.102314,-0.25427 -0.0154,-0.13239 0.23129,-0.20416 0.5481,-0.15953 0.57408,0.0807 0.5742,0.0826 0.0987,0.56284 -0.52276,0.52794 -0.75586,1.69728 -0.41361,2.0749 0.11909,0.1314 0.57378,0.21494 1.00988,0.18563 2.16043,-0.14519 5.61788,-0.54491 6.29733,-0.72812 0.42421,-0.11434 1.047,-0.0648 1.39961,0.11162 0.34945,0.17489 0.76735,0.21358 0.92831,0.0862 0.2889,-0.22868 0.31484,0.35264 0.10182,2.27098 -0.0412,0.37107 0.0812,0.11682 0.27216,-0.5647 0.28971,-1.03418 0.45306,-1.23951 0.98737,-1.24048 0.35212,-5.3e-4 0.81365,-0.0936 1.02584,-0.2066 0.30873,-0.16447 0.22495,-0.30675 -0.4209,-0.71254 l -0.80735,-0.50715 1.12022,-0.17504 c 1.44706,-0.22638 2.2484,-1.11095 1.66623,-1.83938 -0.21303,-0.26653 -0.33734,-0.49024 -0.27567,-0.49744 0.0617,-0.007 0.29583,-0.1093 0.51988,-0.22665 0.2639,-0.1382 0.39459,-0.0863 0.37164,0.14753 -0.0247,0.25155 0.40891,0.36312 1.4305,0.36826 0.80625,0.004 1.69573,0.0718 1.9761,0.15046 0.48498,0.13613 0.48427,0.10583 -0.006,-0.62166 -0.59683,-0.8851 -0.64065,-1.0429 -0.30205,-1.08237 0.13584,-0.0158 1.15518,-0.72959 2.26515,-1.58619 1.10996,-0.8566 2.33988,-1.66851 2.73298,-1.80413 1.11287,-0.38396 1.05179,-0.74339 -0.0774,-0.45585 -0.78784,0.20065 -1.04045,0.16762 -1.14956,-0.15141 -0.10698,-0.31275 -0.3766,-0.13237 -1.14631,0.76761 -0.55357,0.64729 -1.09007,1.1895 -1.19183,1.2046 -0.10175,0.0151 -0.45361,0.2932 -0.78204,0.61795 -0.32841,0.32478 -0.70394,0.60561 -0.83438,0.62405 -0.40152,0.0568 0.54869,-1.09925 1.1122,-1.35317 1.05707,-0.47631 2.12139,-1.84903 2.75554,-3.55372 0.35607,-0.95716 0.74555,-1.75173 0.8659,-1.76577 0.12038,-0.014 0.13229,-0.13491 0.0261,-0.26903 -0.10619,-0.13414 -0.0678,-0.25882 0.0853,-0.27665 0.15307,-0.0178 0.25918,-0.19537 0.23597,-0.39448 -0.0232,-0.19911 0.11684,-0.5284 0.31124,-0.7321 0.1944,-0.2037 0.28942,-0.45187 0.21091,-0.55104 -0.0785,-0.0992 0.001,-0.42441 0.17671,-0.72285 0.17563,-0.29844 0.28508,-0.86795 0.24336,-1.26597 -0.0417,-0.39803 0.0186,-0.73513 0.13423,-0.74862 0.11563,-0.0135 0.19255,-0.29202 0.17084,-0.61912 -0.0805,-1.21224 0.032,-3.00655 0.20213,-3.22506 0.27547,-0.35375 0.33466,2.59761 0.0854,4.25698 -0.028,0.18639 -0.0666,0.49048 -0.0858,0.67584 -0.0191,0.18537 -0.11417,0.50452 -0.21081,0.70867 -0.33745,0.71284 0.20878,0.66187 1.36204,-0.12678 0.84049,-0.57476 1.27237,-1.11274 1.56074,-1.94443 0.2193,-0.63247 0.51485,-1.18289 0.65669,-1.22289 0.14185,-0.04 0.3285,-0.49497 0.41489,-1.01086 0.17297,-1.03305 1.102,-1.83417 2.28681,-1.97226 0.8944,-0.10423 1.12079,-0.37313 0.6735,-0.79999 -0.39318,-0.37524 -0.71343,-3.44787 -0.46289,-4.44024 0.16543,-0.65523 1.41881,-1.67776 2.0053,-1.63593 0.55839,0.0398 3.30556,-0.72075 3.28735,-0.91011 -0.009,-0.0982 0.023,-0.45303 0.0722,-0.78843 0.0701,-0.47709 -0.0198,-0.59665 -0.41389,-0.55071 -0.27704,0.0323 -0.62949,0.21683 -0.78273,0.4105 -0.18188,0.22987 -0.28996,0.25399 -0.31152,0.069 -0.0182,-0.15592 -0.40964,-0.39035 -0.86999,-0.52108 -1.00617,-0.28571 -1.41702,-0.82039 -1.55752,-2.02586 -0.0835,-0.71658 0.10539,-1.16948 0.91878,-2.1975 0.83324,-1.05308 0.96513,-1.37686 0.70627,-1.73473 -0.27973,-0.38671 -0.36465,-0.31136 -0.70311,0.62285 -0.37774,1.04264 -1.42252,2.12345 -2.53934,2.62669 -0.65249,0.29402 -0.75461,0.0271 -0.29091,-0.76155 0.40353,-0.68629 0.34718,-1.5937 -0.085,-1.37159 -0.17278,0.0888 -0.56152,0.0952 -0.86394,0.0145 -0.38704,-0.10327 -0.42872,-0.16602 -0.14129,-0.21271 0.62344,-0.10124 1.41754,-1.70347 1.3507,-2.72479 -0.0438,-0.66851 0.0209,-0.82625 0.24349,-0.59452 0.16673,0.17356 0.51923,0.3687 0.78323,0.43415 0.26401,0.0654 0.50662,0.34655 0.53903,0.62471 0.0324,0.27816 0.23122,0.54998 0.44171,0.6038 0.29045,0.0743 0.33325,-0.1005 0.17791,-0.72483 -0.68045,-2.73472 -0.87195,-4.07455 -0.58751,-4.1077 0.16591,-0.0193 0.2145,-0.14478 0.10832,-0.27891 -0.31042,-0.39215 -0.90624,-0.20128 -0.97858,0.31363 -0.047,0.33403 -0.097,0.28854 -0.17042,-0.15442 -0.0981,-0.592 -0.12926,-0.59992 -0.53422,-0.13747 -0.53301,0.60869 -0.76944,0.64777 -0.82889,0.13765 -0.0253,-0.21682 0.10141,-0.41909 0.28094,-0.44992 0.17954,-0.0308 0.0163,-0.16185 -0.36252,-0.29092 -0.3788,-0.12907 -1.04354,-0.5491 -1.47719,-0.93307 -0.71273,-0.63111 -0.83114,-0.65617 -1.23347,-0.26041 -0.42847,0.42139 -0.43026,0.4157 -0.0483,-0.15741 0.54747,-0.82152 0.47732,-0.96252 -0.42673,-0.85716 -0.56678,0.0661 -0.88595,0.30534 -1.15811,0.86775 -0.20662,0.42698 -0.44446,0.84395 -0.52832,0.92695 -0.0838,0.083 -0.20878,0.45745 -0.27789,0.83177 -0.0691,0.37432 -0.24772,0.90981 -0.39687,1.19018 -0.22478,0.42258 -0.30386,0.44694 -0.46324,0.14261 -0.10574,-0.20191 -0.0359,-0.44873 0.15525,-0.54884 0.19117,-0.10012 0.40788,-0.64472 0.48145,-1.21024 0.31163,-2.39494 0.30598,-2.51328 -0.10879,-2.46494 -0.21956,0.0256 -0.38378,0.17758 -0.36511,0.3378 0.0209,0.17948 -0.22569,0.25705 -0.64236,0.20264 -0.50733,-0.0663 -0.66386,0.0156 -0.6276,0.32674 0.0266,0.22807 0.14764,0.3355 0.26926,0.23923 0.12262,-0.0971 0.17986,0.0971 0.12827,0.43562 -0.0763,0.50053 -0.12002,0.52898 -0.24314,0.15851 -0.0826,-0.24856 -0.25564,-0.36851 -0.3842,-0.26676 -0.13354,0.1057 -0.21399,-0.0834 -0.18797,-0.44102 0.0696,-0.95694 0.27922,-1.5854 0.53892,-1.61567 0.12908,-0.0151 0.22098,-0.14573 0.20414,-0.29027 -0.0169,-0.14453 -0.2116,-0.24158 -0.43295,-0.21578 -0.22136,0.0258 -0.48414,-0.10892 -0.58376,-0.29913 -0.13856,-0.26459 -0.31076,-0.26484 -0.73243,-0.002 -0.45163,0.28119 -0.51214,0.51102 -0.33664,1.27183 0.11782,0.51079 0.3285,1.04192 0.46824,1.18045 0.15766,0.15632 -0.0212,0.46088 -0.47098,0.80253 -0.39867,0.30281 -0.73314,0.48061 -0.74309,0.39507 -0.01,-0.0855 -0.26838,0.0123 -0.5741,0.21756 -0.45873,0.30793 -0.50523,0.30588 -0.26755,-0.0125 0.63986,-0.8572 0.18373,-0.96282 -1.09511,-0.25326 -0.29324,0.16271 -0.45156,0.12263 -0.48003,-0.12163 -0.0234,-0.20059 0.29615,-0.53971 0.7107,-0.75392 0.5058,-0.26137 0.73285,-0.57007 0.68996,-0.93812 -0.0435,-0.37323 0.10429,-0.56818 0.46199,-0.60986 0.68898,-0.0803 0.62418,-0.52102 -0.0969,-0.66069 -0.38465,-0.0745 -0.65966,0.0579 -0.86189,0.41493 -0.1634,0.28849 -0.39389,0.4479 -0.51216,0.3543 -0.11828,-0.0936 -0.34714,0.0532 -0.5083,0.32611 -0.27091,0.45874 -0.29826,0.45334 -0.36769,-0.0751 -0.0413,-0.31436 0.0814,-0.77001 0.27292,-1.01209 0.49594,-0.62678 0.39933,-0.8175 -0.25942,-0.51219 -0.31274,0.14495 -0.81168,0.27451 -1.1087,0.28797 -0.36424,0.0165 -0.66377,0.33603 -0.92009,0.98155 -0.20901,0.5264 -0.45504,0.9478 -0.54671,0.93633 -0.0917,-0.0115 -0.80986,0.1426 -1.59586,0.34256 -1.16299,0.29589 -1.66611,0.2902 -2.70241,-0.0309 -0.72805,-0.22557 -1.35675,-0.60815 -1.46799,-0.89343 -0.15165,-0.38892 -0.35273,-0.45098 -0.91189,-0.28082 -0.8197,0.24945 -1.6703,0.81317 -1.1555,0.76583 0.18119,-0.0167 0.35672,0.20631 0.39041,0.4954 0.0352,0.30204 0.23658,0.50487 0.4733,0.47728 0.29231,-0.0341 0.38117,0.11054 0.30625,0.49734 -0.13802,0.71265 0.15321,0.65645 0.87236,-0.16831 0.31994,-0.36694 0.52334,-0.53022 0.45218,-0.36283 -0.0712,0.16739 -0.10515,0.77092 -0.0753,1.34087 0.0608,1.15939 -0.23217,2.1011 -0.70166,2.25619 -0.42624,0.1408 -0.42664,-0.18021 -0.001,-0.96812 0.29984,-0.55543 0.29495,-0.69344 -0.0321,-0.85086 -0.21464,-0.10332 -0.6458,-0.16012 -0.95773,-0.1259 -0.45781,0.0501 -0.52478,0.17301 -0.34852,0.63624 0.1201,0.31564 0.35829,0.65581 0.52933,0.75613 0.5408,0.3172 -1.20716,0.11842 -3.691,-0.42009 -1.31649,-0.28542 -3.02237,-0.52567 -3.791146,-0.53352 -0.768773,-0.008 -1.586344,-0.0882 -1.816677,-0.17892 -0.230335,-0.0907 -0.477475,-0.15386 -0.549071,-0.13972 -0.443442,0.0876 -5.106132,-0.92971 -5.456792,-1.19059 -0.373661,-0.278 -0.372482,-0.3239 0.0067,-0.3681 0.238377,-0.0278 0.74437,0.0281 1.124325,0.12395 0.547113,0.13808 0.652888,0.10234 0.509196,-0.17204 -0.402757,-0.76905 2.2376,-1.46439 3.067457,-0.80778 0.236429,0.18718 0.410983,0.16769 0.63944,-0.0717 0.229002,-0.23994 0.323577,-0.24923 0.348631,-0.0343 0.01889,0.16224 0.283771,0.26603 0.588319,0.23054 0.371618,-0.0433 0.491731,-0.18237 0.365829,-0.42276 -0.264636,-0.50532 0.365048,-1.07244 1.044824,-0.94078 0.329795,0.0639 0.736725,-0.0582 0.962605,-0.28952 0.27777,-0.2844 0.34531,-0.29918 0.23277,-0.0505 -0.10095,0.22311 0.089,0.43021 0.52328,0.57003 0.54031,0.17397 0.92103,0.0947 1.835,-0.38214 0.63432,-0.33091 1.14151,-0.70391 1.12693,-0.82882 -0.0146,-0.1249 -0.1707,-0.18042 -0.34717,-0.12323 -0.18296,0.0593 -0.39576,-0.21526 -0.49485,-0.63873 -0.10287,-0.43956 -0.36655,-0.76937 -0.64636,-0.80873 -0.37278,-0.0524 -0.48762,-0.31106 -0.54205,-1.22277 -0.0445,-0.74531 -0.2145,-1.25086 -0.47904,-1.42294 -0.14664,-0.0954 -0.24675,-0.14158 -0.30716,-0.13707 z m -11.489942,17.37836 c 0.33149,0.0724 0.635874,0.24628 1.092223,0.56151 0.996253,0.6882 1.029177,0.75176 0.661856,1.26677 -0.557207,0.78125 -0.813284,0.70768 -0.665118,-0.1917 0.113009,-0.68596 0.06935,-0.75929 -0.354357,-0.59408 -0.271824,0.10595 -0.498736,0.0532 -0.519001,-0.12066 -0.0198,-0.16994 -0.135053,-0.23019 -0.256598,-0.13399 -0.12154,0.0962 -0.129173,0.41115 -0.01668,0.69963 0.192974,0.49489 0.143945,0.49288 -0.865264,-0.0328 -1.212979,-0.63182 -1.462536,-0.63494 -2.852919,-0.0354 -0.984471,0.42452 -2.00463,1.64223 -1.699257,2.02801 0.08647,0.10912 0.04548,0.28701 -0.09083,0.39492 -0.136318,0.10791 -0.167151,0.89154 -0.06807,1.74173 0.09909,0.85019 0.08144,1.62414 -0.03931,1.71972 -0.120749,0.0956 -0.233261,-0.21396 -0.250274,-0.68772 -0.01701,-0.47378 -0.256931,-1.16722 -0.53318,-1.54092 -0.423706,-0.57318 -0.458454,-0.77266 -0.220444,-1.27532 0.203131,-0.429 0.194141,-0.63664 -0.03219,-0.74251 -0.735246,-0.34394 1.70012,-2.07428 3.158822,-2.24429 0.429739,-0.0501 0.830206,-0.19504 0.88956,-0.32193 0.05936,-0.12689 0.691901,-0.32564 1.405927,-0.44206 0.564822,-0.0921 0.923606,-0.12136 1.255097,-0.0489 z m 7.912906,1.96457 c 0.254781,0.0652 0.401148,0.2515 0.324964,0.41436 -0.07618,0.16286 0.08922,0.56896 0.368049,0.90266 0.461377,0.55217 0.478946,0.68466 0.19455,1.47178 -0.366712,1.01495 -0.368292,1.05589 -0.04267,1.01794 0.136655,-0.0159 0.366395,-0.37235 0.510564,-0.79204 0.243203,-0.708 0.381024,-0.77862 1.910139,-0.97848 1.40808,-0.18406 1.63009,-0.15181 1.52385,0.22189 -0.44203,1.55504 0.016,1.96225 0.48678,0.43275 0.25926,-0.84225 0.35567,-0.90541 1.5537,-1.02002 1.38995,-0.133 1.77532,0.12228 1.91545,1.26802 0.0823,0.67249 0.0452,0.69939 -0.72794,0.52697 -1.3078,-0.29164 -1.50156,0.0549 -0.25257,0.45171 1.13065,0.3592 1.14248,0.37562 1.30479,1.76828 0.12221,1.04856 0.0677,1.41684 -0.21481,1.44977 -0.20828,0.0243 -0.4651,-0.0651 -0.57072,-0.19851 -0.1056,-0.13341 -0.43669,-0.33902 -0.73525,-0.45667 -1.06655,-0.42029 -0.48278,0.44449 0.66003,0.97782 0.82596,0.38547 1.09958,0.66016 1.07009,1.07405 -0.0218,0.30585 -0.0366,0.66014 -0.0327,0.7875 0.004,0.12736 -0.15386,0.13312 -0.35102,0.0128 -0.41123,-0.25094 -1.58211,-0.43374 -1.55994,-0.2435 0.008,0.0698 0.41167,0.44157 0.89698,0.82556 0.4853,0.384 0.82828,0.81414 0.76188,0.95607 -0.0664,0.14194 0.004,0.24327 0.15736,0.22543 0.15307,-0.0179 0.31011,0.23984 0.34887,0.57237 0.0969,0.83103 -0.34945,2.08724 -0.75936,2.13741 -0.26059,0.032 -0.25597,0.15849 0.0195,0.55482 0.28071,0.40385 0.27953,0.6215 -0.005,1.02048 -0.43525,0.61026 -0.4172,1.05118 0.0471,1.15644 0.25735,0.0584 0.25079,0.28975 -0.026,0.93477 -0.22981,0.53551 -0.25891,0.87984 -0.078,0.91757 0.31523,0.0658 0.63633,0.94434 0.47893,1.30991 -0.0538,0.12491 -0.27281,0.038 -0.48715,-0.19325 -0.35197,-0.3798 -0.38188,-0.35237 -0.30748,0.28599 0.0606,0.51999 0.21462,0.6915 0.58323,0.64854 0.27555,-0.0321 0.58991,0.1107 0.69837,0.31782 0.10847,0.20711 0.41671,0.35115 0.68525,0.31986 0.54529,-0.0636 1.25596,0.77734 1.04254,1.23356 -0.0758,0.16206 0.10067,0.43503 0.39171,0.60646 0.29104,0.17143 0.42744,0.32715 0.30356,0.34625 -0.12389,0.0191 0.0805,0.23044 0.45422,0.4695 0.54517,0.34871 0.62271,0.50831 0.39038,0.80701 -0.39553,0.50853 -0.32411,0.8189 0.13366,0.57917 0.43323,-0.22689 0.57593,0.24658 0.17093,0.56718 -0.18819,0.14897 -0.15444,0.26749 0.11111,0.39171 0.30297,0.14174 0.28294,0.26902 -0.0974,0.62149 -0.30632,0.28388 -0.54849,0.35391 -0.67439,0.19484 -0.13211,-0.1669 -0.36028,-0.13469 -0.69609,0.0987 -0.40321,0.28027 -0.5439,0.26373 -0.72914,-0.087 -0.21122,-0.39996 -0.25554,-0.38952 -0.55969,0.13628 -0.33042,0.57127 -0.3308,0.57154 -0.78626,0.0919 -0.43002,-0.45287 -0.47148,-0.45207 -0.74304,0.0197 -0.31998,0.55587 -1.65452,0.82136 -2.1519,0.42782 -0.22972,-0.18177 -0.35902,-0.16704 -0.46219,0.0535 -0.18309,0.39138 -1.33136,0.53287 -1.59744,0.19673 -0.14118,-0.17834 -0.29317,-0.16084 -0.50252,0.0585 -0.46493,0.48716 -1.66972,0.41589 -2.15373,-0.12763 -0.385074,-0.4324 -0.431556,-0.43559 -0.396412,-0.0282 0.02191,0.25383 -0.13776,0.48189 -0.354573,0.50716 -0.50397,0.0587 -0.548354,-0.30989 -0.09452,-0.78545 0.194395,-0.2037 0.269584,-0.47707 0.166738,-0.607 -0.10286,-0.12993 -0.484627,0.12363 -0.848088,0.5633 -0.910965,1.10197 -1.479566,0.90368 -1.652032,-0.57611 -0.131199,-1.12573 -0.110117,-1.16356 0.8,-1.42222 1.180184,-0.3354 2.256497,-1.27731 3.111847,-2.72305 0.36719,-0.62063 0.85169,-1.34849 1.07673,-1.61738 0.22506,-0.2689 0.38572,-0.69201 0.35677,-0.94044 -0.029,-0.24843 0.0614,-0.54194 0.20104,-0.65243 0.24362,-0.19285 -0.0432,-1.17735 -0.41109,-1.41066 -0.0976,-0.0619 -0.39623,-0.44631 -0.66335,-0.8547 -0.64829,-0.99113 -1.09897,-1.34424 -1.782195,-1.39506 -0.31292,-0.0231 -0.88215,-0.31007 -1.264915,-0.63731 -0.787958,-0.67368 -1.059733,-0.73959 -0.770249,-0.18681 0.232521,0.44399 -0.500545,0.61773 -0.833247,0.19743 -0.478092,-0.60395 -0.886363,-4.90623 -0.746856,-7.87142 0.07971,-1.6941 0.137044,-3.16902 0.127635,-3.2778 -0.04237,-0.48986 0.983512,-1.37975 1.684631,-1.46146 0.425091,-0.0495 0.833583,-0.21932 0.907577,-0.3775 0.08667,-0.18525 -0.228378,-0.1986 -0.885656,-0.037 -0.99845,0.24539 -1.018839,0.23519 -0.941464,-0.48388 0.129024,-1.19892 0.502629,-1.81822 1.017564,-1.6865 z m 17.131916,15.93708 c 1.02873,0.0588 2.11348,0.59246 2.43092,1.40654 0.1937,0.49677 -0.57886,1.58617 -1.66825,2.35304 -1.38858,0.97746 -3.38862,0.63879 -3.53282,-0.59851 -0.0508,-0.43607 0.0373,-0.5936 0.27567,-0.49338 0.28011,0.11773 0.27639,0.084 -0.0194,-0.16854 -0.51222,-0.43725 -0.51226,-0.81443 2.7e-4,-0.68333 0.23426,0.0599 0.34599,0.007 0.24755,-0.11719 -0.0984,-0.12435 0.0159,-0.37224 0.25447,-0.55111 0.23862,-0.17886 0.31879,-0.31532 0.17771,-0.30332 -0.14107,0.012 -0.0424,-0.16562 0.21992,-0.39476 0.39934,-0.34885 0.99669,-0.4847 1.61393,-0.44945 z m -19.39508,2.18632 c 1.092576,0.0465 2.460594,0.88431 2.599325,1.59192 0.02807,0.14323 0.112766,0.45511 0.188143,0.69302 0.07538,0.23791 -0.03881,0.62386 -0.253569,0.85761 -0.716304,0.77958 -1.975615,1.23238 -2.429372,0.87335 -0.233773,-0.18496 -0.490982,-0.2113 -0.609886,-0.0617 -0.317826,0.39982 -1.479881,-0.41468 -1.720848,-1.20651 -0.117406,-0.38581 -0.09655,-0.7153 0.04628,-0.73195 0.142822,-0.0166 0.180729,-0.18146 0.08384,-0.36647 -0.15535,-0.29663 0.474068,-1.26922 0.729213,-1.12675 0.298236,0.16654 0.622425,-0.0513 0.432827,-0.29078 -0.162075,-0.20474 0.09149,-0.26758 0.934043,-0.23172 z"
       id="path2879" /></g></svg>
